<svg xmlns="http://www.w3.org/2000/svg" viewBox="0 0 1600 900" fill="none" preserveAspectRatio="xMidYMid meet">
  <g clip-path="url(#a)">

    <!-- SKY -->
    <g class="sky">
      <path fill="#fff" d="M0 0h1600v900H0z"/>
      <path fill="url(#b)" d="M0 0h1600v900H0V0Z"/>
    </g>

    <!-- SUN -->
    <g class="sun">
      <circle cx="808" cy="675" r="400" fill="url(#c)" fill-opacity=".85"/>
    </g>

    <!-- WATER (blue bands only) -->
    <g class="water">
      <path fill="#154FCC" d="M0 694h1600v206H0z"/>
      <path fill="#4170F2" d="M0 720h1600v125H0z"/>
      <path fill="#3693FE" d="M0 775h1600v125H0z"/>
    </g>

    <!-- BRIDGE + PIERS + MISC FOREGROUND (unchanged, just left as-is) -->
    <path fill="#154FCC" d="M322 734h316v22H322zM979 734h316v22H979z"/>
    <path fill="#FD4141" d="M0 431h1600v32H0z"/>
    <path fill="#FD4141" d="M1070 450h133v42h-133z"/>
    <path fill="#FD4141" d="M1118 431h37v213h-37zM1070 644h133v69h-133z"/>
    <path fill="#DB9E76" d="M1054 675h165v59h-165z"/>
    <path fill="#DB9E76" d="M1009 720h256v21h-256z"/>
    <path fill="#FD4141" d="M1099 490h75v16h-75z"/>
    <path fill="#9D3939" d="M1070 431h133v17h-133z"/>
    <path fill="#9D3939" d="M1070 431h13v48h-13zM1190 431h13v48h-13z"/>
    <path fill="#FD4141" d="M413 644h133v76H413zM463 431h37v213h-37z"/>
    <path fill="#DB9E76" d="M352 720h256v21H352z"/>
    <path fill="#DB9E76" d="M396 675h165v59H396v-59Z"/>
    <path fill="#9D3939" d="M412 431h133v17H412z"/>
    <path fill="#FD4141" d="M444 490h75v16h-75z"/>
    <path fill="#FD4141" d="M413 450h133v42H413z"/>
    <path fill="#9D3939" d="M412 431h13v48h-13zM533 431h13v48h-13z"/>
    <path fill="#FD4141" d="M1109 306h56v125h-56zM1123 179h28v127h-28zM1130 89h13v90h-13z"/>
    <path fill="#9D3939" d="M1126 96h21v9h-21z"/>
    <path fill="#FD4141" d="M1134 70h5v19h-5zM466 179h28v127h-28zM451 306h56v125h-56zM473 89h13v90h-13z"/>
    <path fill="#9D3939" d="M469 96h21v9h-21z"/>
    <path fill="#FD4141" d="M477 70h5v19h-5z"/>
    <g fill="#FD4141">
      <path d="m12.5 349.078 3.5-.539V431h-4l.5-81.922ZM1460 377.538l4 .88V456h-4v-78.462ZM1494 375.538l4 .88V454h-4v-78.462ZM1528 373.053l2-.508 2-.509V451h-4v-77.947ZM1562 365.053l2-.508 2-.509V443h-4v-77.947ZM1596 355.053l2-.508 2-.509V433h-4v-77.947ZM486 105c0 72.669 33.925 142.362 94.312 193.747C640.698 350.132 722.6 379 808 379c85.4 0 167.302-28.868 227.69-80.253C1096.08 247.362 1130 177.669 1130 105h-3.37c0 71.91-33.57 140.874-93.32 191.722-59.757 50.848-140.803 79.414-225.31 79.414s-165.553-28.566-225.309-79.414C522.936 245.874 489.365 176.91 489.365 105H486Z"/>
      <path d="M1143 105c0 72.669 33.92 142.362 94.31 193.747C1297.7 350.132 1379.6 379 1465 379s167.3-28.868 227.69-80.253C1753.08 247.362 1787 177.669 1787 105h-3.37c0 71.91-33.57 140.874-93.32 191.722-59.76 50.848-140.8 79.414-225.31 79.414-84.51 0-165.55-28.566-225.31-79.414-59.75-50.848-93.32-119.812-93.32-191.722H1143ZM396.5 280l3.5-1v153h-4l.5-152ZM364.5 308l3.5-1v153h-4l.5-152ZM332.5 330.338l3.5-.669V432h-4l.5-101.662ZM300.5 346.351l3.5-.676V449h-4l.5-102.649ZM268.5 359.364l3.5-.682V463h-4l.5-103.636ZM236.5 367.26l3.5-.63V463h-4l.5-95.74ZM204.5 372.974l3.5-.487V447h-4l.5-74.026ZM172.5 377.974l3.5-.487V452h-4l.5-74.026ZM140.5 377.974l3.5-.487V452h-4l.5-74.026ZM108.5 375.974l3.5-.487V450h-4l.5-74.026ZM76.5 369.974l3.5-.487V444h-4l.5-74.026ZM44.5 360.974l3.5-.487V435h-4l.5-74.026ZM425.499 243.842l3.489-1.231V431H425l.499-187.158ZM526 237.329l4 2.171V431h-4V237.329Z"/>
      <path d="m1185 239.315 4 2.149V431h-4V239.315ZM1223 283.029l4 1.681V433h-4V283.029ZM1256 313.029l4 1.681V463h-4V313.029ZM1290 334.661l4 1.08V431h-4v-96.339ZM1324 350.661l4 1.08V447h-4v-96.339Z"/>
      <path d="m1324 350.661 4 1.08V447h-4v-96.339ZM1358 361.661l4 1.08V458h-4v-96.339ZM1392 371.538l4 .88V450h-4v-78.462ZM1426 375.538l4 .88V454h-4v-78.462ZM559 276.138l4 1.859V442h-4V276.138ZM591 304.906l4 1.481V437h-4V304.906ZM623 326.906l4 1.481V459h-4V326.906ZM655 343.641l4 1.046V437h-4v-93.359ZM687 356.641l4 1.046V450h-4v-93.359ZM719 365.641l4 1.046V459h-4v-93.359ZM783 375.463l4 .758V443h-4v-67.537ZM751 372.463l4 .758V440h-4v-67.537ZM986 333.163l4-2.163v102h-4v-99.837ZM815 378.463l4-1.463v69h-4v-67.537ZM847 375.463l4-1.463v69h-4v-67.537ZM879 371.463l4-1.463v69h-4v-67.537ZM915 360.527l4-1.527v72h-4v-70.473ZM950 351.845l4-1.845v87h-4v-85.155ZM1021 308.651l4-2.651v125h-4V308.651ZM1085 240.136l4-4.136v195h-4V240.136ZM1052 280.266l4-3.266v154h-4V280.266ZM-162 105c0 72.669 33.451 142.362 92.994 193.747C-9.464 350.132 71.294 379 155.5 379c84.206 0 164.964-28.868 224.506-80.253C439.549 247.362 473 177.669 473 105h-3.318c0 71.91-33.102 140.874-92.022 191.722-58.921 50.848-138.834 79.414-222.16 79.414S-7.74 347.57-66.66 296.722C-125.581 245.874-158.682 176.91-158.682 105H-162Z"/>
    </g>

    <!-- RIPPLES (split into far / mid / near for parallax speeds) -->
    <g class="ripples ripples--far" fill="#fff">
      <rect width="183" height="17" x="708" y="741" rx="8.5"/>
      <rect width="92"  height="17" x="691" y="766" rx="8.5"/>
      <rect width="125" height="17" x="1392" y="741" rx="8.5"/>
      <rect width="260" height="17" x="1256" y="766" rx="8.5"/>
      <rect width="17"  height="17" x="1530" y="750" rx="8.5"/>
      <rect width="17"  height="17" x="796"  y="766" rx="8.5"/>
    </g>

    <g class="ripples ripples--mid" fill="#fff">
      <rect width="183" height="17" x="117"  y="795" rx="8.5"/>
      <rect width="125" height="17" x="1331" y="795" rx="8.5"/>
      <rect width="17"  height="17" x="1481" y="795" rx="8.5"/>
    </g>

    <g class="ripples ripples--near" fill="#fff">
      <rect width="183" height="17" x="891" y="838" rx="8.5"/>
      <rect width="279" height="17" x="915" y="813" rx="8.5"/>
      <rect width="92"  height="17" x="540" y="847" rx="8.5"/>
      <rect width="125" height="17" x="456" y="822" rx="8.5"/>
      <rect width="17"  height="17" x="1087" y="838" rx="8.5"/>
      <rect width="131" height="17" x="131" y="822" rx="8.5"/>
      <rect width="66"  height="17" x="157" y="821" rx="8.5"/>
    </g>

  </g>

  <defs>
    <radialGradient id="c" cx="0" cy="0" r="1" gradientTransform="matrix(0 400 -400 0 808 675)" gradientUnits="userSpaceOnUse">
      <stop stop-color="#FFA94D"/><stop offset="1" stop-color="#FFD480"/>
    </radialGradient>
    <linearGradient id="b" x1="796" x2="796" y1="6" y2="906" gradientUnits="userSpaceOnUse">
      <stop stop-color="#FF9E5E"/><stop offset="1" stop-color="#FCE3B0"/>
    </linearGradient>
    <clipPath id="a"><path fill="#fff" d="M0 0h1600v900H0z"/></clipPath>
  </defs>
</svg>